<svg class="icon-control icon-control-close" xmlns="http://www.w3.org/2000/svg" viewBox="0 0 36 36">
 <path d="m20.1211 18 3.4395-3.4395c.5859-.5854.5859-1.5356 0-2.1211-.5859-.5859-1.5352-.5859-2.1211 0l-3.4395 3.4395-3.4395-3.4395c-.5859-.5859-1.5352-.5859-2.1211 0-.5859.5854-.5859 1.5356 0 2.1211l3.4395 3.4395-3.4395 3.4395c-.5859.5854-.5859 1.5356 0 2.1211.293.293.6768.4395 1.0605.4395s.7676-.1465 1.0605-.4395l3.4395-3.4395 3.4395 3.4395c.293.293.6768.4395 1.0605.4395s.7676-.1465 1.0605-.4395c.5859-.5854.5859-1.5356 0-2.1211l-3.4395-3.4395z"></path>
 </svg>